<svg width="17" height="13" viewBox="0 0 17 13" fill="none" xmlns="http://www.w3.org/2000/svg">
<path d="M15.5833 0.125H1.41668C0.635342 0.125 0 0.760342 0 1.54168V11.4584C0 12.2397 0.635342 12.875 1.41668 12.875H15.5834C16.3647 12.875 17 12.2397 17 11.4583V1.54168C17 0.760342 16.3647 0.125 15.5833 0.125ZM1.41668 0.833322H15.5834C15.6356 0.833322 15.6815 0.852348 15.7305 0.863106C14.504 1.9856 10.4372 5.70608 9.01398 6.98835C8.90262 7.08866 8.72313 7.20832 8.50003 7.20832C8.27694 7.20832 8.09745 7.08866 7.98572 6.98802C6.56266 5.70595 2.49558 1.98527 1.26929 0.863172C1.31836 0.852414 1.36445 0.833322 1.41668 0.833322ZM0.708322 11.4583V1.54168C0.708322 1.47228 0.72924 1.40933 0.747967 1.34591C1.68669 2.20508 4.52436 4.80103 6.36434 6.47423C4.53033 8.04962 1.69193 10.7407 0.745742 11.6429C0.729041 11.5827 0.708322 11.5238 0.708322 11.4583ZM15.5833 12.1667H1.41668C1.3601 12.1667 1.3098 12.147 1.25697 12.1343C2.2347 11.2023 5.09117 8.49574 6.89294 6.95435C7.12781 7.16742 7.34237 7.36169 7.51151 7.51409C7.80343 7.77766 8.14513 7.91668 8.5 7.91668C8.85487 7.91668 9.19657 7.77762 9.48812 7.51442C9.65733 7.36195 9.87205 7.16752 10.1071 6.95435C11.9089 8.49557 14.765 11.2019 15.743 12.1343C15.6902 12.147 15.64 12.1667 15.5833 12.1667ZM16.2917 11.4583C16.2917 11.5238 16.271 11.5827 16.2543 11.6429C15.3077 10.7402 12.4697 8.04946 10.6357 6.47427C12.4757 4.80106 15.313 2.20534 16.252 1.34585C16.2708 1.40926 16.2917 1.47225 16.2917 1.54164V11.4583Z" fill="#C0C5D0"/>
</svg>
