<svg width="77" height="77" viewBox="0 0 77 77" fill="none" xmlns="http://www.w3.org/2000/svg">
<path d="M77 51.1092L62.0968 48.6253V42.2258H59.6129V37.2581H37.2581V42.2258H34.7742V77H74.5161V59.4231L77 59.8367V51.1092ZM39.7419 39.7419H57.129V42.2258H39.7419V39.7419ZM44.7097 74.5161V62.0968H52.1613V74.5161H44.7097ZM59.6129 74.5161H54.6452V59.6129H42.2258V74.5161H37.2581V44.7097H59.6129V74.5161ZM62.0968 67.0645H67.0645V74.5161H62.0968V67.0645ZM72.0323 74.5161H69.5484V64.5806H62.0968V57.3528L72.0323 59.0083V74.5161ZM74.5161 56.904L62.0968 54.835V51.1431L74.5161 53.2122V56.904Z" fill="#276EC3"/>
<path d="M57.129 47.1935H39.7419V57.129H57.129V47.1935ZM42.2258 49.6774H47.1936V54.6452H42.2258V49.6774ZM54.6452 54.6452H49.6774V49.6774H54.6452V54.6452Z" fill="#276EC3"/>
<path d="M34.7742 0H0V37.2581H34.7742V0ZM32.2903 34.7742H2.48387V2.48387H32.2903V34.7742Z" fill="#276EC3"/>
<path d="M17.3871 4.96774H4.96774V17.3871H17.3871V4.96774ZM14.9032 14.9032H7.45161V7.45161H14.9032V14.9032Z" fill="#276EC3"/>
<path d="M19.871 4.96774H29.8065V7.45161H19.871V4.96774Z" fill="#276EC3"/>
<path d="M19.871 9.93549H29.8065V12.4194H19.871V9.93549Z" fill="#276EC3"/>
<path d="M4.96774 19.871H29.8064V22.3548H4.96774V19.871Z" fill="#276EC3"/>
<path d="M4.96774 24.8387H12.4194V27.3226H4.96774V24.8387Z" fill="#276EC3"/>
<path d="M14.9032 24.8387H29.8065V27.3226H14.9032V24.8387Z" fill="#276EC3"/>
<path d="M27.3226 29.8064H29.8064V32.2903H27.3226V29.8064Z" fill="#276EC3"/>
<path d="M4.96774 29.8064H24.8387V32.2903H4.96774V29.8064Z" fill="#276EC3"/>
<path d="M19.0948 53.1309L20.6472 51.1916L13.6613 45.6041L6.67542 51.1916L8.22783 53.1309L13.6613 48.783L19.0948 53.1309Z" fill="#276EC3"/>
<path d="M12.4194 62.0968V53.4032H9.93549V62.0968C9.93549 66.2064 13.2774 69.5484 17.3871 69.5484H29.8065V67.0645H17.3871C14.6473 67.0645 12.4194 64.8366 12.4194 62.0968Z" fill="#276EC3"/>
<path d="M14.9032 53.4032V62.0968C14.9032 63.4667 16.0172 64.5807 17.3871 64.5807H22.3548V62.0968H17.3871V53.4032H14.9032Z" fill="#276EC3"/>
<path d="M24.8387 62.0968H27.3226V64.5806H24.8387V62.0968Z" fill="#276EC3"/>
<path d="M29.8064 62.0968H32.2903V64.5806H29.8064V62.0968Z" fill="#276EC3"/>
<path d="M50.4536 23.869L48.9012 25.8084L55.8871 31.3959L62.873 25.8084L61.3206 23.869L55.8871 28.217L50.4536 23.869Z" fill="#276EC3"/>
<path d="M57.129 14.9032V23.5968H59.6129V14.9032C59.6129 10.7936 56.271 7.45161 52.1613 7.45161H39.7419V9.93549H52.1613C54.9011 9.93549 57.129 12.1635 57.129 14.9032Z" fill="#276EC3"/>
<path d="M54.6452 23.5968V14.9032C54.6452 13.5333 53.5312 12.4194 52.1613 12.4194H47.1935V14.9032H52.1613V23.5968H54.6452Z" fill="#276EC3"/>
<path d="M42.2258 12.4194H44.7097V14.9032H42.2258V12.4194Z" fill="#276EC3"/>
<path d="M37.2581 12.4194H39.7419V14.9032H37.2581V12.4194Z" fill="#276EC3"/>
</svg>
